<?xml version="1.0" standalone="no"?>
<!DOCTYPE svg PUBLIC "-//W3C//DTD SVG 20010904//EN"
 "http://www.w3.org/TR/2001/REC-SVG-20010904/DTD/svg10.dtd">
<svg version="1.0" xmlns="http://www.w3.org/2000/svg"
 width="469.000000pt" height="469.000000pt" viewBox="0 0 469.000000 469.000000"
 preserveAspectRatio="xMidYMid meet">

<g transform="translate(0.000000,469.000000) scale(0.100000,-0.100000)"
fill="#ffffff" stroke="none">
<path d="M2765 4608 c-207 -22 -339 -59 -486 -134 -201 -104 -272 -163 -594
-499 -515 -538 -665 -701 -665 -719 0 -3 37 14 82 38 197 106 352 151 585 169
138 11 164 16 198 37 22 14 132 114 244 224 276 269 375 331 585 371 186 35
360 7 541 -88 147 -77 326 -319 360 -486 55 -275 1 -506 -172 -735 -26 -34
-203 -216 -394 -406 -191 -190 -354 -359 -363 -377 -12 -23 -18 -83 -24 -235
-10 -234 -29 -307 -102 -404 -45 -60 -158 -154 -243 -203 -108 -62 -256 -100
-390 -102 l-82 -1 50 -14 c67 -18 238 -18 333 2 103 21 206 65 289 124 37 26
172 152 298 280 127 128 398 401 602 606 370 372 453 463 544 601 212 324 235
870 51 1238 -86 173 -240 359 -389 471 -122 92 -264 160 -433 208 -48 14 -307
48 -335 44 -5 0 -46 -5 -90 -10z"/>
<path d="M1640 3200 c-275 -27 -568 -179 -772 -399 -111 -120 -224 -308 -272
-457 -50 -151 -69 -298 -63 -489 8 -283 66 -468 216 -691 79 -118 137 -183
435 -483 283 -285 399 -381 571 -466 119 -60 233 -96 382 -121 74 -13 138 -15
291 -11 180 4 207 7 320 36 287 75 493 200 725 441 159 163 231 280 307 495
84 237 114 432 125 810 6 220 2 265 -25 265 -20 0 -443 -427 -465 -470 -8 -15
-23 -88 -34 -163 -22 -152 -55 -257 -113 -367 -54 -102 -102 -163 -218 -274
-152 -145 -320 -238 -485 -267 -106 -18 -352 -7 -440 21 -81 26 -187 77 -254
122 -43 30 -415 386 -545 521 -132 138 -222 282 -267 427 -20 65 -23 96 -23
235 -1 167 6 205 56 335 40 102 138 221 258 309 132 98 211 120 462 128 145 5
191 3 203 -7 13 -11 15 -87 15 -654 l-1 -641 22 -18 c26 -21 56 -17 138 19
137 61 247 172 282 285 18 56 19 97 19 535 0 372 3 474 13 475 6 1 80 0 162
-1 263 -3 400 25 448 92 27 37 36 99 36 269 1 100 -3 149 -11 157 -9 9 -181
12 -718 11 -388 -1 -739 -5 -780 -9z"/>
</g>
</svg>
