<?xml version="1.0" standalone="no"?>
<!DOCTYPE svg PUBLIC "-//W3C//DTD SVG 20010904//EN"
 "http://www.w3.org/TR/2001/REC-SVG-20010904/DTD/svg10.dtd">
<svg version="1.0" xmlns="http://www.w3.org/2000/svg"
 width="1280.000000pt" height="469.000000pt" viewBox="0 0 1280.000000 469.000000"
 preserveAspectRatio="xMidYMid meet">

<g transform="translate(0.000000,469.000000) scale(0.100000,-0.100000)"
fill="#ffffff" stroke="none">
<path d="M2330 4664 c-258 -29 -399 -71 -585 -176 -182 -103 -229 -145 -646
-578 -350 -365 -602 -640 -586 -640 3 0 42 20 88 44 211 112 388 162 616 175
l152 8 57 43 c31 23 133 118 228 210 94 92 187 181 206 197 214 185 528 250
790 164 197 -64 297 -143 429 -339 86 -127 121 -254 121 -431 -1 -186 -62
-364 -182 -526 -28 -38 -214 -233 -414 -432 -199 -199 -370 -376 -379 -393
-12 -24 -18 -79 -24 -238 -12 -288 -38 -362 -176 -491 -158 -148 -325 -219
-555 -237 l-95 -7 60 -13 c175 -37 408 6 583 107 42 25 229 206 709 686 784
786 832 843 917 1098 102 303 92 671 -23 960 -81 202 -267 437 -455 575 -136
99 -351 188 -520 215 -100 15 -261 25 -316 19z"/>
<path d="M7552 3428 c-9 -9 -12 -262 -12 -1075 l0 -1063 25 -16 c20 -13 49
-15 169 -12 99 2 149 7 158 16 16 16 22 2130 6 2149 -14 18 -329 18 -346 1z"/>
<path d="M1175 3220 c-387 -37 -741 -259 -957 -600 -183 -288 -244 -621 -184
-990 38 -233 157 -468 342 -674 155 -173 559 -573 644 -637 283 -217 531 -299
900 -299 279 0 514 60 734 187 233 134 495 393 600 593 51 96 113 255 141 361
50 190 65 310 77 621 13 331 9 364 -35 335 -21 -14 -323 -317 -411 -412 -54
-58 -73 -101 -80 -180 -16 -170 -69 -337 -150 -476 -51 -87 -207 -255 -304
-329 -104 -78 -251 -147 -361 -170 -268 -56 -551 1 -756 152 -33 25 -191 175
-351 334 -233 231 -302 307 -348 377 -79 121 -115 212 -137 342 -17 96 -18
125 -8 225 24 258 117 427 314 573 150 112 238 136 500 137 101 1 189 -1 195
-5 7 -4 10 -223 10 -665 0 -604 1 -660 17 -675 53 -54 275 60 382 196 75 93
74 92 79 652 l3 497 202 0 c111 0 230 4 265 9 81 12 146 44 170 84 25 42 42
160 42 297 0 97 -2 112 -20 130 -20 20 -32 20 -727 19 -390 -1 -744 -5 -788
-9z"/>
<path d="M4874 3222 c-7 -4 -14 -81 -18 -212 -4 -112 -10 -208 -12 -212 -3 -5
-36 -8 -73 -8 -53 0 -74 -4 -92 -19 -23 -18 -24 -25 -24 -136 0 -142 2 -145
115 -145 l77 0 6 -152 c4 -83 7 -255 7 -382 0 -127 5 -262 10 -301 29 -203
130 -325 315 -382 50 -15 94 -18 261 -18 156 0 205 3 217 14 14 11 17 35 17
150 0 75 -5 143 -10 151 -7 12 -37 15 -157 15 -134 0 -152 2 -190 22 -32 18
-45 33 -60 70 -16 44 -18 83 -18 428 l0 380 205 5 205 5 3 131 c2 113 0 133
-14 145 -13 10 -65 15 -208 19 l-191 5 -5 215 -5 215 -175 2 c-96 2 -180 0
-186 -5z"/>
<path d="M10585 2828 c-137 -15 -227 -60 -324 -161 -64 -66 -71 -63 -71 33 0
38 -5 71 -12 78 -8 8 -62 12 -179 12 -143 0 -168 -2 -173 -16 -3 -9 -6 -348
-6 -754 0 -721 0 -740 19 -750 25 -13 245 -13 293 0 31 9 39 17 48 48 6 23 10
197 10 449 0 525 6 562 113 660 58 53 103 68 212 68 81 0 95 -3 142 -29 29
-16 64 -46 79 -67 50 -73 54 -114 54 -626 0 -460 1 -474 20 -493 18 -18 33
-20 148 -19 70 0 143 5 162 12 34 12 35 14 40 72 3 33 3 290 0 570 -6 562 -3
533 -73 662 -90 168 -302 273 -502 251z"/>
<path d="M6420 2820 c-144 -17 -253 -64 -338 -143 -75 -71 -138 -188 -156
-289 -11 -62 3 -68 167 -68 78 0 149 5 157 10 8 5 26 37 40 72 33 82 74 111
189 134 213 42 380 -46 381 -201 0 -44 -28 -98 -59 -114 -22 -13 -144 -36
-236 -46 -83 -9 -319 -51 -380 -68 -167 -46 -255 -137 -301 -311 -41 -153 17
-335 142 -445 63 -55 107 -77 201 -102 192 -49 384 -10 547 110 65 48 86 48
86 -3 0 -65 22 -78 153 -89 135 -11 186 -3 205 33 10 20 12 140 9 570 -3 528
-4 547 -25 611 -84 253 -389 385 -782 339z m438 -884 c8 -144 -39 -284 -112
-338 -83 -62 -138 -80 -240 -80 -109 0 -161 18 -212 73 -67 73 -75 207 -16
273 42 46 105 65 315 96 73 10 150 24 172 29 22 5 51 9 65 8 23 -2 25 -6 28
-61z"/>
<path d="M11955 2814 c-85 -20 -118 -31 -172 -55 -169 -75 -282 -194 -354
-375 -68 -170 -90 -391 -55 -553 21 -96 73 -223 121 -295 149 -225 475 -349
763 -290 146 30 310 126 395 232 65 82 117 202 117 268 0 44 -13 47 -185 42
l-136 -3 -77 -83 c-86 -92 -104 -104 -200 -128 -57 -15 -76 -15 -127 -5 -219
46 -329 247 -296 543 15 132 49 221 114 293 68 77 128 105 224 105 120 0 233
-59 283 -148 35 -62 48 -66 216 -70 180 -5 198 0 188 56 -3 20 -24 75 -46 120
-68 144 -206 258 -384 318 -68 23 -99 27 -224 30 -80 1 -154 1 -165 -2z"/>
<path d="M8123 2783 c-21 -8 -15 -36 33 -155 26 -62 66 -162 89 -223 24 -60
80 -200 125 -310 361 -885 347 -842 300 -936 -64 -126 -156 -187 -310 -203
-35 -4 -59 -12 -67 -23 -9 -11 -13 -57 -13 -139 0 -158 -3 -154 138 -154 188
0 307 43 408 147 87 89 134 187 319 668 60 156 76 199 155 405 45 118 92 242
105 275 13 33 48 128 78 210 31 83 79 208 106 277 28 70 51 136 51 148 0 19
-6 20 -161 20 -91 0 -169 -4 -180 -10 -10 -6 -28 -29 -40 -52 -18 -35 -158
-413 -236 -638 -59 -172 -126 -330 -138 -330 -8 0 -23 26 -35 58 -19 50 -121
331 -163 447 -155 435 -182 495 -223 514 -25 11 -316 15 -341 4z"/>
</g>
</svg>
