<svg width="28" height="32" viewBox="0 0 28 32" fill="none" xmlns="http://www.w3.org/2000/svg">
<path d="M27.6823 22.9933C26.8727 21.5989 25.6694 17.6534 25.6694 12.5002C25.6694 9.4055 24.44 6.43752 22.2517 4.24922C20.0634 2.06092 17.0955 0.831543 14.0007 0.831543C10.906 0.831543 7.93803 2.06092 5.74972 4.24922C3.56142 6.43752 2.33205 9.4055 2.33205 12.5002C2.33205 17.6549 1.12725 21.5989 0.31774 22.9933C0.111015 23.3478 0.00142255 23.7505 1.37559e-05 24.1609C-0.00139504 24.5713 0.10543 24.9747 0.309716 25.3307C0.514001 25.6866 0.808524 25.9823 1.16358 26.1881C1.51864 26.3938 1.92168 26.5023 2.33205 26.5026H8.28453C8.55375 27.82 9.2697 29.0039 10.3113 29.8541C11.3529 30.7044 12.6562 31.1688 14.0007 31.1688C15.3453 31.1688 16.6486 30.7044 17.6902 29.8541C18.7318 29.0039 19.4477 27.82 19.7169 26.5026H25.6694C26.0797 26.5021 26.4825 26.3934 26.8374 26.1875C27.1922 25.9817 27.4865 25.6859 27.6906 25.33C27.8948 24.9742 28.0015 24.5708 28 24.1605C27.9985 23.7503 27.8889 23.3477 27.6823 22.9933ZM14.0007 28.8364C13.277 28.8362 12.5711 28.6116 11.9803 28.1937C11.3894 27.7758 10.9426 27.185 10.7014 26.5026H17.3C17.0588 27.185 16.612 27.7758 16.0212 28.1937C15.4303 28.6116 14.7245 28.8362 14.0007 28.8364ZM2.33205 24.1689C3.45516 22.2377 4.66578 17.7628 4.66578 12.5002C4.66578 10.0244 5.64928 7.65006 7.39993 5.89942C9.15057 4.14878 11.5249 3.16528 14.0007 3.16528C16.4765 3.16528 18.8509 4.14878 20.6015 5.89942C22.3522 7.65006 23.3357 10.0244 23.3357 12.5002C23.3357 17.7584 24.5434 22.2334 25.6694 24.1689H2.33205Z" fill="#191919"/>
</svg>
