<svg width="12" height="17" viewBox="0 0 12 17" fill="none" xmlns="http://www.w3.org/2000/svg">
<path d="M10.6667 0.5H1.33333C0.979711 0.5 0.640573 0.634859 0.390524 0.874911C0.140476 1.11496 0 1.44054 0 1.78003V15.8603C5.91978e-05 15.9745 0.0319563 16.0866 0.0923815 16.185C0.152807 16.2834 0.239558 16.3645 0.343633 16.4198C0.447708 16.4752 0.565315 16.5028 0.684249 16.4998C0.803182 16.4968 0.919109 16.4633 1.02 16.4027L6 13.4147L10.9808 16.4027C11.0817 16.463 11.1975 16.4964 11.3164 16.4993C11.4352 16.5022 11.5526 16.4746 11.6566 16.4192C11.7605 16.3639 11.8472 16.2829 11.9075 16.1847C11.9679 16.0864 11.9998 15.9744 12 15.8603V1.78003C12 1.44054 11.8595 1.11496 11.6095 0.874911C11.3594 0.634859 11.0203 0.5 10.6667 0.5ZM10.6667 14.7059L6.3525 12.1178C6.24655 12.0543 6.12411 12.0205 5.99917 12.0205C5.87422 12.0205 5.75179 12.0543 5.64583 12.1178L1.33333 14.7059V1.78003H10.6667V14.7059Z" fill="black" fill-opacity="0.8"/>
</svg>
