<svg width="18" height="17" viewBox="0 0 18 17" fill="none" xmlns="http://www.w3.org/2000/svg">
<path d="M11.0769 7.79167C11.0769 7.97953 11.004 8.1597 10.8742 8.29253C10.7443 8.42537 10.5682 8.5 10.3846 8.5H7.61539C7.43177 8.5 7.25568 8.42537 7.12585 8.29253C6.99602 8.1597 6.92308 7.97953 6.92308 7.79167C6.92308 7.6038 6.99602 7.42364 7.12585 7.2908C7.25568 7.15796 7.43177 7.08333 7.61539 7.08333H10.3846C10.5682 7.08333 10.7443 7.15796 10.8742 7.2908C11.004 7.42364 11.0769 7.6038 11.0769 7.79167ZM18 4.25V15.5833C18 15.9591 17.8541 16.3194 17.5945 16.5851C17.3348 16.8507 16.9826 17 16.6154 17H1.38462C1.01739 17 0.66521 16.8507 0.405544 16.5851C0.145879 16.3194 0 15.9591 0 15.5833V4.25C0 3.87428 0.145879 3.51394 0.405544 3.24827C0.66521 2.98259 1.01739 2.83333 1.38462 2.83333H4.84615V2.125C4.84615 1.56141 5.06497 1.02091 5.45447 0.622398C5.84397 0.223883 6.37224 0 6.92308 0H11.0769C11.6278 0 12.156 0.223883 12.5455 0.622398C12.935 1.02091 13.1538 1.56141 13.1538 2.125V2.83333H16.6154C16.9826 2.83333 17.3348 2.98259 17.5945 3.24827C17.8541 3.51394 18 3.87428 18 4.25ZM6.23077 2.83333H11.7692V2.125C11.7692 1.93714 11.6963 1.75697 11.5665 1.62413C11.4366 1.49129 11.2605 1.41667 11.0769 1.41667H6.92308C6.73947 1.41667 6.56337 1.49129 6.43354 1.62413C6.30371 1.75697 6.23077 1.93714 6.23077 2.125V2.83333ZM16.6154 7.93422V4.25H1.38462V7.93422C3.72135 9.23558 6.33953 9.91715 9 9.91667C11.6605 9.91715 14.2787 9.23558 16.6154 7.93422Z" fill="#013DF5"/>
</svg>
