<svg width="15" height="11" viewBox="0 0 15 11" fill="none" xmlns="http://www.w3.org/2000/svg">
<path d="M14.6478 1.29403L5.64779 10.294C5.59555 10.3463 5.53351 10.3878 5.46523 10.4161C5.39694 10.4444 5.32375 10.459 5.24982 10.459C5.1759 10.459 5.10271 10.4444 5.03442 10.4161C4.96613 10.3878 4.9041 10.3463 4.85186 10.294L0.914356 6.35653C0.808808 6.25099 0.749512 6.10783 0.749512 5.95856C0.749512 5.8093 0.808808 5.66614 0.914356 5.5606C1.0199 5.45505 1.16306 5.39575 1.31232 5.39575C1.46159 5.39575 1.60475 5.45505 1.71029 5.5606L5.24982 9.10083L13.8519 0.498096C13.9574 0.392548 14.1006 0.333252 14.2498 0.333252C14.3991 0.333252 14.5422 0.392548 14.6478 0.498096C14.7533 0.603644 14.8126 0.746797 14.8126 0.896065C14.8126 1.04533 14.7533 1.18849 14.6478 1.29403Z" fill="white"/>
</svg>
