<svg width="28" height="20" viewBox="0 0 28 20" fill="none" xmlns="http://www.w3.org/2000/svg">
<path d="M26.7751 11.45C26.6832 11.519 26.5786 11.5691 26.4672 11.5977C26.3559 11.6262 26.2401 11.6325 26.1263 11.6162C26.0126 11.6 25.9032 11.5615 25.8043 11.5029C25.7054 11.4444 25.619 11.367 25.5501 11.275C25.0227 10.5661 24.3362 9.99096 23.5459 9.59582C22.7557 9.20068 21.8836 8.9966 21.0001 9.00003C20.828 9.00002 20.6598 8.94927 20.5164 8.85414C20.373 8.75901 20.2609 8.62372 20.194 8.46519C20.1486 8.35754 20.1252 8.24188 20.1252 8.12503C20.1252 8.00819 20.1486 7.89253 20.194 7.78488C20.2609 7.62635 20.373 7.49105 20.5164 7.39592C20.6598 7.3008 20.828 7.25005 21.0001 7.25003C21.491 7.24999 21.9721 7.11226 22.3887 6.8525C22.8053 6.59274 23.1408 6.22135 23.3569 5.78052C23.573 5.33968 23.6611 4.84708 23.6113 4.35866C23.5615 3.87024 23.3757 3.40558 23.075 3.01746C22.7744 2.62934 22.3709 2.33332 21.9104 2.16302C21.4499 1.99272 20.9509 1.95496 20.4701 2.05405C19.9892 2.15313 19.5458 2.38507 19.1902 2.72354C18.8345 3.062 18.581 3.49342 18.4582 3.96878C18.4295 4.0801 18.3791 4.18467 18.31 4.27651C18.2408 4.36836 18.1543 4.4457 18.0553 4.5041C17.9562 4.5625 17.8467 4.60082 17.7328 4.61688C17.619 4.63294 17.5031 4.62642 17.3918 4.59769C17.2805 4.56896 17.1759 4.51859 17.0841 4.44945C16.9922 4.38031 16.9149 4.29376 16.8565 4.19474C16.7981 4.09571 16.7598 3.98615 16.7437 3.87232C16.7277 3.75848 16.7342 3.6426 16.7629 3.53128C16.9333 2.87209 17.2551 2.26176 17.7029 1.74885C18.1506 1.23594 18.7119 0.834612 19.342 0.576791C19.9722 0.318969 20.6538 0.211775 21.3326 0.263738C22.0115 0.3157 22.6689 0.525385 23.2524 0.876108C23.836 1.22683 24.3296 1.70891 24.6941 2.28399C25.0586 2.85907 25.2838 3.51127 25.3518 4.18871C25.4199 4.86615 25.3289 5.55012 25.0861 6.1862C24.8433 6.82227 24.4554 7.39291 23.9532 7.85269C25.143 8.36784 26.1773 9.18533 26.9534 10.2239C27.0223 10.3161 27.0724 10.421 27.1007 10.5325C27.1291 10.644 27.1352 10.7601 27.1186 10.874C27.1021 10.9879 27.0632 11.0974 27.0042 11.1962C26.9453 11.2951 26.8674 11.3813 26.7751 11.45ZM20.882 18.1875C20.9453 18.2871 20.9878 18.3985 21.0069 18.5149C21.0261 18.6314 21.0215 18.7505 20.9934 18.8651C20.9653 18.9797 20.9144 19.0875 20.8436 19.1819C20.7728 19.2763 20.6836 19.3554 20.5814 19.4145C20.4793 19.4736 20.3662 19.5113 20.249 19.5256C20.1319 19.5398 20.0131 19.5302 19.8997 19.4973C19.7864 19.4644 19.6809 19.409 19.5895 19.3342C19.4982 19.2595 19.4229 19.1671 19.3682 19.0625C18.817 18.1292 18.032 17.3557 17.0906 16.8184C16.1492 16.281 15.084 15.9984 14.0001 15.9984C12.9161 15.9984 11.8509 16.281 10.9096 16.8184C9.96818 17.3557 9.18316 18.1292 8.63196 19.0625C8.57726 19.1671 8.50198 19.2595 8.41063 19.3342C8.31928 19.409 8.21377 19.4644 8.10043 19.4973C7.9871 19.5302 7.86828 19.5398 7.75113 19.5256C7.63398 19.5113 7.52092 19.4736 7.41875 19.4145C7.31658 19.3554 7.22741 19.2763 7.15661 19.1819C7.08581 19.0875 7.03484 18.9797 7.00676 18.8651C6.97869 18.7505 6.97409 18.6314 6.99324 18.5149C7.01239 18.3985 7.0549 18.2871 7.11821 18.1875C7.96652 16.73 9.25999 15.583 10.8085 14.915C9.93717 14.2479 9.29677 13.3245 8.97737 12.2745C8.65796 11.2246 8.6756 10.101 9.02781 9.06162C9.38001 8.02224 10.0491 7.11936 10.9409 6.4799C11.8328 5.84043 12.9027 5.49653 14.0001 5.49653C15.0975 5.49653 16.1674 5.84043 17.0592 6.4799C17.9511 7.11936 18.6202 8.02224 18.9724 9.06162C19.3246 10.101 19.3422 11.2246 19.0228 12.2745C18.7034 13.3245 18.063 14.2479 17.1917 14.915C18.7402 15.583 20.0337 16.73 20.882 18.1875ZM14.0001 14.25C14.6923 14.25 15.369 14.0448 15.9446 13.6602C16.5202 13.2756 16.9688 12.729 17.2337 12.0894C17.4986 11.4499 17.5679 10.7462 17.4328 10.0672C17.2978 9.38828 16.9644 8.76464 16.475 8.27516C15.9855 7.78568 15.3618 7.45233 14.6829 7.31728C14.004 7.18224 13.3002 7.25155 12.6607 7.51645C12.0212 7.78136 11.4745 8.22997 11.0899 8.80554C10.7054 9.38111 10.5001 10.0578 10.5001 10.75C10.5001 11.6783 10.8688 12.5685 11.5252 13.2249C12.1816 13.8813 13.0718 14.25 14.0001 14.25ZM7.87509 8.12503C7.87509 7.89297 7.7829 7.67041 7.61881 7.50631C7.45471 7.34222 7.23215 7.25003 7.00009 7.25003C6.50913 7.24999 6.02803 7.11226 5.61143 6.8525C5.19483 6.59274 4.85942 6.22135 4.64331 5.78052C4.4272 5.33968 4.33905 4.84708 4.38887 4.35866C4.43869 3.87024 4.62448 3.40558 4.92514 3.01746C5.22581 2.62934 5.62929 2.33332 6.08976 2.16302C6.55023 1.99272 7.04923 1.95496 7.53008 2.05405C8.01093 2.15313 8.45436 2.38507 8.81 2.72354C9.16564 3.062 9.41922 3.49342 9.54196 3.96878C9.59998 4.19359 9.74493 4.38615 9.94491 4.5041C10.1449 4.62204 10.3836 4.6557 10.6084 4.59769C10.8332 4.53967 11.0257 4.39473 11.1437 4.19474C11.2616 3.99475 11.2953 3.75609 11.2373 3.53128C11.0669 2.87209 10.7451 2.26176 10.2973 1.74885C9.84958 1.23594 9.2883 0.834612 8.65816 0.576791C8.02802 0.318969 7.3464 0.211775 6.66754 0.263738C5.98868 0.3157 5.33132 0.525385 4.74776 0.876108C4.1642 1.22683 3.67054 1.70891 3.30608 2.28399C2.94161 2.85907 2.7164 3.51127 2.64835 4.18871C2.5803 4.86615 2.6713 5.55012 2.9141 6.1862C3.15691 6.82227 3.54482 7.39291 4.04696 7.85269C2.85837 8.36833 1.82524 9.18578 1.05009 10.2239C0.910704 10.4096 0.850779 10.643 0.883495 10.8728C0.916211 11.1027 1.03889 11.3101 1.22454 11.4495C1.41019 11.5889 1.64361 11.6488 1.87344 11.6161C2.10328 11.5834 2.3107 11.4607 2.45009 11.275C2.97748 10.5661 3.66395 9.99096 4.45423 9.59582C5.24451 9.20068 6.11653 8.9966 7.00009 9.00003C7.23215 9.00003 7.45471 8.90785 7.61881 8.74375C7.7829 8.57966 7.87509 8.3571 7.87509 8.12503Z" fill="white"/>
</svg>
