<svg width="20" height="20" viewBox="0 0 20 20" fill="none" xmlns="http://www.w3.org/2000/svg">
<path d="M7.375 0.375H2.125C1.66087 0.375 1.21575 0.559374 0.887563 0.887563C0.559374 1.21575 0.375 1.66087 0.375 2.125V7.375C0.375 7.83913 0.559374 8.28425 0.887563 8.61244C1.21575 8.94063 1.66087 9.125 2.125 9.125H7.375C7.83913 9.125 8.28425 8.94063 8.61244 8.61244C8.94063 8.28425 9.125 7.83913 9.125 7.375V2.125C9.125 1.66087 8.94063 1.21575 8.61244 0.887563C8.28425 0.559374 7.83913 0.375 7.375 0.375ZM7.375 7.375H2.125V2.125H7.375V7.375ZM17.875 0.375H12.625C12.1609 0.375 11.7158 0.559374 11.3876 0.887563C11.0594 1.21575 10.875 1.66087 10.875 2.125V7.375C10.875 7.83913 11.0594 8.28425 11.3876 8.61244C11.7158 8.94063 12.1609 9.125 12.625 9.125H17.875C18.3391 9.125 18.7842 8.94063 19.1124 8.61244C19.4406 8.28425 19.625 7.83913 19.625 7.375V2.125C19.625 1.66087 19.4406 1.21575 19.1124 0.887563C18.7842 0.559374 18.3391 0.375 17.875 0.375ZM17.875 7.375H12.625V2.125H17.875V7.375ZM7.375 10.875H2.125C1.66087 10.875 1.21575 11.0594 0.887563 11.3876C0.559374 11.7158 0.375 12.1609 0.375 12.625V17.875C0.375 18.3391 0.559374 18.7842 0.887563 19.1124C1.21575 19.4406 1.66087 19.625 2.125 19.625H7.375C7.83913 19.625 8.28425 19.4406 8.61244 19.1124C8.94063 18.7842 9.125 18.3391 9.125 17.875V12.625C9.125 12.1609 8.94063 11.7158 8.61244 11.3876C8.28425 11.0594 7.83913 10.875 7.375 10.875ZM7.375 17.875H2.125V12.625H7.375V17.875ZM17.875 10.875H12.625C12.1609 10.875 11.7158 11.0594 11.3876 11.3876C11.0594 11.7158 10.875 12.1609 10.875 12.625V17.875C10.875 18.3391 11.0594 18.7842 11.3876 19.1124C11.7158 19.4406 12.1609 19.625 12.625 19.625H17.875C18.3391 19.625 18.7842 19.4406 19.1124 19.1124C19.4406 18.7842 19.625 18.3391 19.625 17.875V12.625C19.625 12.1609 19.4406 11.7158 19.1124 11.3876C18.7842 11.0594 18.3391 10.875 17.875 10.875ZM17.875 17.875H12.625V12.625H17.875V17.875Z" fill="white"/>
</svg>
