<svg width="23" height="28" viewBox="0 0 23 28" fill="none" xmlns="http://www.w3.org/2000/svg">
<path d="M10 2.41454V14.0008C10 14.266 9.89464 14.5204 9.70711 14.7079C9.51957 14.8954 9.26522 15.0008 9 15.0008C8.73478 15.0008 8.48043 14.8954 8.29289 14.7079C8.10536 14.5204 8 14.266 8 14.0008V2.41454L5.7075 4.70829C5.61459 4.8012 5.50429 4.8749 5.3829 4.92518C5.2615 4.97546 5.13139 5.00134 5 5.00134C4.73464 5.00134 4.48014 4.89593 4.2925 4.70829C4.19959 4.61538 4.12589 4.50508 4.07561 4.38368C4.02532 4.26229 3.99944 4.13218 3.99944 4.00079C3.99944 3.73542 4.10486 3.48093 4.2925 3.29329L8.2925 -0.706713C8.38537 -0.79969 8.49566 -0.873449 8.61706 -0.923773C8.73846 -0.974097 8.86858 -1 9 -1C9.13142 -1 9.26154 -0.974097 9.38294 -0.923773C9.50434 -0.873449 9.61463 -0.79969 9.7075 -0.706713L13.7075 3.29329C13.8951 3.48093 14.0006 3.73542 14.0006 4.00079C14.0006 4.26615 13.8951 4.52065 13.7075 4.70829C13.5199 4.89593 13.2654 5.00134 13 5.00134C12.7346 5.00134 12.4801 4.89593 12.2925 4.70829L10 2.41454ZM18 13.4533V10.0008C18 9.47035 17.7893 8.96165 17.4142 8.58657C17.0391 8.2115 16.5304 8.00079 16 8.00079H14C13.7348 8.00079 13.4804 8.10614 13.2929 8.29368C13.1054 8.48122 13 8.73557 13 9.00079C13 9.266 13.1054 9.52036 13.2929 9.70789C13.4804 9.89543 13.7348 10.0008 14 10.0008H16V20.0508C15.4036 19.4416 14.6055 19.071 13.7552 19.0085C12.905 18.9461 12.0612 19.1961 11.3823 19.7117C10.7033 20.2272 10.2359 20.9728 10.0677 21.8086C9.89949 22.6443 10.0421 23.5127 10.4688 24.2508L10.4988 24.2983L13.2812 28.5483C13.4265 28.7702 13.6539 28.9254 13.9135 28.9797C14.1731 29.034 14.4437 28.9829 14.6656 28.8377C14.8876 28.6925 15.0428 28.465 15.097 28.2054C15.1513 27.9458 15.1002 27.6752 14.955 27.4533L12.1887 23.2295C11.9927 22.8833 11.9421 22.4733 12.0483 22.0898C12.1545 21.7062 12.4087 21.3806 12.755 21.1845C13.1013 20.9884 13.5113 20.9379 13.8948 21.0441C14.2783 21.1503 14.6039 21.4045 14.8 21.7508C14.8087 21.767 14.8188 21.7833 14.8288 21.7983L16.1637 23.837C16.2818 24.017 16.4547 24.1541 16.6568 24.2279C16.8589 24.3018 17.0795 24.3085 17.2857 24.247C17.492 24.1855 17.6729 24.0591 17.8015 23.8866C17.9302 23.7141 17.9998 23.5047 18 23.2895V16.0008C18.9426 16.8733 19.6954 17.9305 20.2115 19.1067C20.7276 20.2828 20.996 21.5526 21 22.837V28.0008C21 28.266 21.1054 28.5204 21.2929 28.7079C21.4804 28.8954 21.7348 29.0008 22 29.0008C22.2652 29.0008 22.5196 28.8954 22.7071 28.7079C22.8946 28.5204 23 28.266 23 28.0008V22.832C22.9943 20.9796 22.5358 19.1566 21.6643 17.5219C20.7928 15.8873 19.5349 14.4905 18 13.4533ZM4 8.00079H2C1.46957 8.00079 0.960859 8.2115 0.585786 8.58657C0.210714 8.96165 0 9.47035 0 10.0008V23.0008C0 23.266 0.105357 23.5204 0.292893 23.7079C0.48043 23.8954 0.734784 24.0008 1 24.0008C1.26522 24.0008 1.51957 23.8954 1.70711 23.7079C1.89464 23.5204 2 23.266 2 23.0008V10.0008H4C4.26522 10.0008 4.51957 9.89543 4.70711 9.70789C4.89464 9.52036 5 9.266 5 9.00079C5 8.73557 4.89464 8.48122 4.70711 8.29368C4.51957 8.10614 4.26522 8.00079 4 8.00079Z" fill="white"/>
</svg>
