<svg width="16" height="13" viewBox="0 0 16 13" fill="none" xmlns="http://www.w3.org/2000/svg">
<path d="M13.2414 6.5C13.2414 6.81826 13.1542 7.12348 12.999 7.34853C12.8438 7.57357 12.6333 7.7 12.4138 7.7H3.58621C3.36672 7.7 3.15622 7.57357 3.00101 7.34853C2.84581 7.12348 2.75862 6.81826 2.75862 6.5C2.75862 6.18174 2.84581 5.87652 3.00101 5.65147C3.15622 5.42643 3.36672 5.3 3.58621 5.3H12.4138C12.6333 5.3 12.8438 5.42643 12.999 5.65147C13.1542 5.87652 13.2414 6.18174 13.2414 6.5ZM15.1724 0.5H0.827586C0.608097 0.5 0.397597 0.626428 0.242394 0.851472C0.0871919 1.07652 0 1.38174 0 1.7C0 2.01826 0.0871919 2.32348 0.242394 2.54853C0.397597 2.77357 0.608097 2.9 0.827586 2.9H15.1724C15.3919 2.9 15.6024 2.77357 15.7576 2.54853C15.9128 2.32348 16 2.01826 16 1.7C16 1.38174 15.9128 1.07652 15.7576 0.851472C15.6024 0.626428 15.3919 0.5 15.1724 0.5ZM9.65517 10.1H6.34483C6.12534 10.1 5.91484 10.2264 5.75964 10.4515C5.60443 10.6765 5.51724 10.9817 5.51724 11.3C5.51724 11.6183 5.60443 11.9235 5.75964 12.1485C5.91484 12.3736 6.12534 12.5 6.34483 12.5H9.65517C9.87466 12.5 10.0852 12.3736 10.2404 12.1485C10.3956 11.9235 10.4828 11.6183 10.4828 11.3C10.4828 10.9817 10.3956 10.6765 10.2404 10.4515C10.0852 10.2264 9.87466 10.1 9.65517 10.1Z" fill="black" fill-opacity="0.8"/>
</svg>
