<svg width="18" height="19" viewBox="0 0 18 19" fill="none" xmlns="http://www.w3.org/2000/svg">
<path d="M15.5227 10.1506C15.5251 10.1227 15.5209 10.0946 15.5105 10.0686C15.5001 10.0426 15.4837 10.0194 15.4628 10.0008L14.9833 9.49134C14.952 9.47133 14.9156 9.46069 14.8784 9.46069C14.8412 9.46069 14.8048 9.47133 14.7735 9.49134C14.1331 9.76034 13.4453 9.89792 12.7507 9.89591C12.1956 9.89779 11.644 9.80922 11.1174 9.63369C11.0726 9.61864 11.0238 9.62109 10.9807 9.64055C10.9377 9.66 10.9035 9.69502 10.8852 9.73858C10.6899 10.1789 10.4381 10.592 10.136 10.9673C10.1249 10.9933 10.1191 11.0213 10.1191 11.0497C10.1191 11.078 10.1249 11.106 10.136 11.1321C10.1869 11.3157 10.2495 11.4958 10.3233 11.6715C10.344 11.7166 10.3817 11.7516 10.4282 11.7689C12.2562 12.4432 14.6312 13.5595 14.6312 17.0132V18.137C14.6349 18.1919 14.6349 18.247 14.6312 18.3018C14.6274 18.3286 14.6295 18.3558 14.6372 18.3817C14.645 18.4075 14.6583 18.4314 14.6761 18.4517C14.7138 18.4897 14.765 18.5113 14.8185 18.5116H17.6055C17.7048 18.5116 17.8001 18.4722 17.8703 18.4019C17.9406 18.3317 17.9801 18.2364 17.9801 18.137V17.5002C17.9801 15.1777 16.3618 14.6008 14.9308 14.0914L14.5637 13.9565C14.5173 13.9392 14.4795 13.9042 14.4589 13.8591C14.4366 13.811 14.4191 13.7608 14.4064 13.7093C14.3385 13.4034 14.3385 13.0862 14.4064 12.7803C15.0824 12.0664 15.4787 11.1329 15.5227 10.1506Z" fill="#013DF5"/>
<path d="M7.49193 4.62158C7.49194 4.09843 7.57022 3.57823 7.72418 3.07824C7.74337 3.03014 7.74337 2.97651 7.72418 2.92841C7.69382 2.8842 7.64864 2.85232 7.59682 2.8385C7.31632 2.77709 7.02988 2.74694 6.74274 2.7486C4.96715 2.7486 3.18407 3.91734 3.18407 6.49456C3.18407 9.6112 4.45021 10.3604 4.60005 10.6751C4.75028 11.1382 4.76587 11.6344 4.645 12.106C4.59256 12.3008 4.51764 12.3832 4.46519 12.4057L3.89581 12.608C2.06777 13.2822 0 13.9865 0 16.9833V18.107C0 18.2064 0.0394663 18.3017 0.109717 18.3719C0.179967 18.4422 0.275247 18.4816 0.374597 18.4816H13.1109C13.2102 18.4816 13.3055 18.4422 13.3758 18.3719C13.446 18.3017 13.4855 18.2064 13.4855 18.107V16.9833C13.4855 14.0239 11.4102 13.2897 9.57469 12.6304L8.99032 12.4357C8.93788 12.4357 8.86296 12.3308 8.81051 12.136C8.67979 11.668 8.67979 11.1731 8.81051 10.705C9.22651 10.2667 9.56361 9.75978 9.80694 9.20664C9.82222 9.16583 9.82391 9.12117 9.81176 9.07933C9.79961 9.03748 9.77427 9.00067 9.73951 8.97439C9.03888 8.48659 8.46793 7.83511 8.07624 7.07655C7.68456 6.31798 7.48398 5.47526 7.49193 4.62158Z" fill="#013DF5"/>
<path d="M14.9841 8.09783C15.0177 8.0729 15.0584 8.05943 15.1002 8.05943C15.1421 8.05943 15.1828 8.0729 15.2164 8.09783L16.7147 9.59622C16.7844 9.66644 16.8673 9.72217 16.9586 9.76021C17.0498 9.79824 17.1478 9.81783 17.2467 9.81783C17.3456 9.81783 17.4435 9.79824 17.5348 9.76021C17.6261 9.72217 17.709 9.66644 17.7786 9.59622C17.8488 9.52657 17.9046 9.44371 17.9426 9.35241C17.9806 9.26111 18.0002 9.16319 18.0002 9.06429C18.0002 8.96539 17.9806 8.86746 17.9426 8.77617C17.9046 8.68487 17.8488 8.60201 17.7786 8.53236L16.2802 7.03398C16.2553 7.0004 16.2418 6.95968 16.2418 6.91785C16.2418 6.87603 16.2553 6.83531 16.2802 6.80173C16.8192 5.94406 17.0235 4.91789 16.8539 3.91919C16.6843 2.9205 16.1527 2.01927 15.3608 1.38764C14.5688 0.75601 13.5719 0.438234 12.5605 0.495006C11.5491 0.551778 10.5941 0.979119 9.87779 1.69541C9.16149 2.41171 8.73415 3.36676 8.67738 4.37816C8.62061 5.38956 8.93838 6.38643 9.57002 7.17839C10.2017 7.97034 11.1029 8.50188 12.1016 8.67148C13.1003 8.84108 14.1264 8.63687 14.9841 8.09783ZM10.1144 4.62158C10.1144 4.10296 10.2681 3.59599 10.5563 3.16478C10.8444 2.73356 11.2539 2.39747 11.7331 2.19901C12.2122 2.00054 12.7394 1.94861 13.2481 2.04979C13.7567 2.15097 14.224 2.4007 14.5907 2.76742C14.9574 3.13414 15.2071 3.60137 15.3083 4.11002C15.4095 4.61867 15.3576 5.1459 15.1591 5.62504C14.9606 6.10418 14.6245 6.51371 14.1933 6.80184C13.7621 7.08996 13.2551 7.24375 12.7365 7.24375C12.0411 7.24375 11.3741 6.96749 10.8824 6.47573C10.3906 5.98398 10.1144 5.31702 10.1144 4.62158Z" fill="#013DF5"/>
</svg>
