<svg width="24" height="22" viewBox="0 0 24 22" fill="none" xmlns="http://www.w3.org/2000/svg">
<path d="M10.6875 9.125C10.6875 8.86541 10.7645 8.61165 10.9087 8.39581C11.0529 8.17997 11.2579 8.01175 11.4977 7.91241C11.7376 7.81307 12.0015 7.78708 12.2561 7.83772C12.5107 7.88836 12.7445 8.01337 12.9281 8.19692C13.1116 8.38048 13.2366 8.61434 13.2873 8.86894C13.3379 9.12354 13.3119 9.38744 13.2126 9.62727C13.1133 9.8671 12.945 10.0721 12.7292 10.2163C12.5133 10.3605 12.2596 10.4375 12 10.4375C11.6519 10.4375 11.3181 10.2992 11.0719 10.0531C10.8258 9.80694 10.6875 9.4731 10.6875 9.125ZM7.1875 10.4375C7.44709 10.4375 7.70085 10.3605 7.91669 10.2163C8.13252 10.0721 8.30075 9.8671 8.40009 9.62727C8.49943 9.38744 8.52542 9.12354 8.47478 8.86894C8.42414 8.61434 8.29913 8.38048 8.11558 8.19692C7.93202 8.01337 7.69816 7.88836 7.44356 7.83772C7.18896 7.78708 6.92506 7.81307 6.68523 7.91241C6.4454 8.01175 6.24042 8.17997 6.0962 8.39581C5.95198 8.61165 5.875 8.86541 5.875 9.125C5.875 9.4731 6.01328 9.80694 6.25942 10.0531C6.50556 10.2992 6.8394 10.4375 7.1875 10.4375ZM16.8125 10.4375C17.0721 10.4375 17.3258 10.3605 17.5417 10.2163C17.7575 10.0721 17.9258 9.8671 18.0251 9.62727C18.1244 9.38744 18.1504 9.12354 18.0998 8.86894C18.0491 8.61434 17.9241 8.38048 17.7406 8.19692C17.557 8.01337 17.3232 7.88836 17.0686 7.83772C16.814 7.78708 16.5501 7.81307 16.3102 7.91241C16.0704 8.01175 15.8654 8.17997 15.7212 8.39581C15.577 8.61165 15.5 8.86541 15.5 9.125C15.5 9.4731 15.6383 9.80694 15.8844 10.0531C16.1306 10.2992 16.4644 10.4375 16.8125 10.4375ZM23.375 2.125V16.125C23.375 16.5891 23.1906 17.0342 22.8624 17.3624C22.5342 17.6906 22.0891 17.875 21.625 17.875H15.0155L13.5192 20.4934C13.3661 20.7612 13.145 20.9837 12.8782 21.1385C12.6114 21.2933 12.3084 21.3748 12 21.3748C11.6916 21.3748 11.3886 21.2933 11.1218 21.1385C10.855 20.9837 10.6339 20.7612 10.4808 20.4934L8.98453 17.875H2.375C1.91087 17.875 1.46575 17.6906 1.13756 17.3624C0.809374 17.0342 0.625 16.5891 0.625 16.125V2.125C0.625 1.66087 0.809374 1.21575 1.13756 0.887563C1.46575 0.559374 1.91087 0.375 2.375 0.375H21.625C22.0891 0.375 22.5342 0.559374 22.8624 0.887563C23.1906 1.21575 23.375 1.66087 23.375 2.125ZM21.625 2.125H2.375V16.125H9.49203C9.64695 16.1236 9.79947 16.1634 9.93399 16.2403C10.0685 16.3171 10.1802 16.4283 10.2577 16.5625L12.0077 19.625L13.7577 16.5625C13.8351 16.4283 13.9468 16.3171 14.0813 16.2403C14.2158 16.1634 14.3684 16.1236 14.5233 16.125H21.625V2.125Z" fill="white"/>
</svg>
