<svg width="24" height="20" viewBox="0 0 24 20" fill="none" xmlns="http://www.w3.org/2000/svg">
<path d="M21.625 3.87501H12.362L9.375 0.887977C9.21309 0.724768 9.02034 0.59537 8.80798 0.507308C8.59562 0.419245 8.36787 0.374274 8.13797 0.375009H2.375C1.91087 0.375009 1.46575 0.559383 1.13756 0.887572C0.809374 1.21576 0.625 1.66088 0.625 2.12501V17.9428C0.625579 18.3888 0.802995 18.8163 1.11834 19.1317C1.43369 19.447 1.86122 19.6244 2.30719 19.625H21.7223C22.1605 19.6244 22.5805 19.4501 22.8903 19.1403C23.2001 18.8305 23.3744 18.4105 23.375 17.9724V5.62501C23.375 5.16088 23.1906 4.71576 22.8624 4.38757C22.5342 4.05938 22.0891 3.87501 21.625 3.87501ZM2.375 2.12501H8.13797L9.88797 3.87501H2.375V2.12501ZM21.625 17.875H2.375V5.62501H21.625V17.875Z" fill="white"/>
</svg>
