<svg width="24" height="22" viewBox="0 0 24 22" fill="none" xmlns="http://www.w3.org/2000/svg">
<path d="M21.625 4.43751H12.5895L9.74578 1.23391C9.53989 1.00237 9.28716 0.817206 9.00432 0.690684C8.72149 0.564162 8.415 0.499169 8.10516 0.500008H2.375C1.79484 0.500008 1.23844 0.730476 0.828204 1.14071C0.417968 1.55095 0.1875 2.10735 0.1875 2.68751V18.9428C0.188368 19.5047 0.41197 20.0434 0.809301 20.4407C1.20663 20.838 1.74528 21.0616 2.30719 21.0625H21.7223C22.2765 21.0619 22.8078 20.8415 23.1997 20.4497C23.5915 20.0578 23.8119 19.5265 23.8125 18.9724V6.62501C23.8125 6.04485 23.582 5.48845 23.1718 5.07821C22.7616 4.66798 22.2052 4.43751 21.625 4.43751ZM2.8125 3.12501H7.91047L9.0775 4.43751H2.8125V3.12501ZM21.1875 18.4375H2.8125V7.06251H21.1875V18.4375Z" fill="#013DF5"/>
</svg>
