<svg width="28" height="28" viewBox="0 0 28 28" fill="none" xmlns="http://www.w3.org/2000/svg">
<path d="M27.6847 26.1625L20.9518 19.431C22.9033 17.0881 23.8764 14.0831 23.6687 11.0411C23.461 7.99903 22.0885 5.15416 19.8367 3.09828C17.585 1.0424 14.6273 -0.0662167 11.5789 0.0030619C8.53058 0.0723405 5.6263 1.31418 3.47024 3.47024C1.31418 5.6263 0.0723405 8.53058 0.0030619 11.5789C-0.0662167 14.6273 1.0424 17.585 3.09828 19.8367C5.15416 22.0885 7.99903 23.461 11.0411 23.6687C14.0831 23.8764 17.0881 22.9033 19.431 20.9518L26.1625 27.6847C26.2625 27.7847 26.3811 27.864 26.5117 27.9181C26.6423 27.9722 26.7823 28 26.9236 28C27.065 28 27.205 27.9722 27.3355 27.9181C27.4661 27.864 27.5848 27.7847 27.6847 27.6847C27.7847 27.5848 27.864 27.4661 27.9181 27.3355C27.9722 27.205 28 27.065 28 26.9236C28 26.7823 27.9722 26.6423 27.9181 26.5117C27.864 26.3811 27.7847 26.2625 27.6847 26.1625ZM2.18124 11.863C2.18124 9.94816 2.74906 8.07629 3.81292 6.48412C4.87677 4.89195 6.38886 3.65101 8.15798 2.91822C9.9271 2.18543 11.8738 1.99369 13.7519 2.36727C15.63 2.74084 17.3551 3.66295 18.7091 5.01697C20.0631 6.371 20.9853 8.09613 21.3588 9.97422C21.7324 11.8523 21.5407 13.799 20.8079 15.5681C20.0751 17.3372 18.8341 18.8493 17.242 19.9132C15.6498 20.977 13.7779 21.5449 11.863 21.5449C9.29614 21.542 6.83519 20.5211 5.02012 18.706C3.20504 16.8909 2.18408 14.4299 2.18124 11.863Z" fill="black"/>
</svg>
