<svg width="18" height="17" viewBox="0 0 18 17" fill="none" xmlns="http://www.w3.org/2000/svg">
<path d="M17.5265 2.75357L9.21886 0.0348836C9.07675 -0.0116279 8.9231 -0.0116279 8.78098 0.0348836L0.473361 2.75357C0.335511 2.79869 0.215615 2.88524 0.130658 3.00098C0.0457003 3.11671 -1.07673e-05 3.25575 1.90241e-09 3.39841V10.1951C1.90241e-09 10.3754 0.0729387 10.5483 0.20277 10.6757C0.332602 10.8032 0.508692 10.8748 0.692302 10.8748C0.875912 10.8748 1.052 10.8032 1.18183 10.6757C1.31166 10.5483 1.3846 10.3754 1.3846 10.1951V4.34146L4.29141 5.29215C3.51911 6.51709 3.27352 7.99286 3.60857 9.39542C3.94362 10.798 4.83191 12.0127 6.07841 12.7728C4.52073 13.3726 3.1742 14.4575 2.1894 15.9409C2.13819 16.0156 2.10261 16.0996 2.08475 16.188C2.06688 16.2763 2.06708 16.3673 2.08534 16.4556C2.10359 16.5438 2.13953 16.6277 2.19108 16.7022C2.24262 16.7767 2.30874 16.8404 2.38559 16.8896C2.46243 16.9388 2.54848 16.9725 2.63872 16.9888C2.72895 17.0051 2.82159 17.0036 2.91123 16.9844C3.00087 16.9652 3.08574 16.9287 3.16089 16.8771C3.23605 16.8254 3.29999 16.7596 3.34901 16.6835C4.65313 14.7192 6.71273 13.5935 8.99992 13.5935C11.2871 13.5935 13.3467 14.7192 14.6508 16.6835C14.7524 16.8316 14.9092 16.9346 15.0875 16.9701C15.2657 17.0057 15.4511 16.9709 15.6034 16.8733C15.7558 16.7758 15.8629 16.6233 15.9016 16.4488C15.9404 16.2743 15.9076 16.0919 15.8104 15.9409C14.8256 14.4575 13.4739 13.3726 11.9214 12.7728C13.1667 12.0127 14.0542 10.7988 14.3892 9.39727C14.7242 7.99574 14.4794 6.52098 13.7084 5.2964L17.5265 4.0475C17.6644 4.00241 17.7843 3.91586 17.8693 3.80013C17.9543 3.68439 18 3.54534 18 3.40266C18 3.25998 17.9543 3.12093 17.8693 3.00519C17.7843 2.88945 17.6644 2.80291 17.5265 2.75782V2.75357ZM13.1537 8.15612C13.1539 8.80083 12.9984 9.43641 12.6999 10.0107C12.4015 10.585 11.9686 11.0816 11.4368 11.4598C10.9049 11.838 10.2894 12.0871 9.64052 12.1865C8.99168 12.2859 8.32808 12.2329 7.70415 12.0318C7.08022 11.8307 6.51376 11.4872 6.05123 11.0295C5.5887 10.5719 5.24329 10.0131 5.04334 9.39895C4.84339 8.78485 4.7946 8.13295 4.90096 7.49675C5.00733 6.86054 5.26582 6.25816 5.65524 5.73903L8.78098 6.75854C8.9231 6.80505 9.07675 6.80505 9.21886 6.75854L12.3446 5.73903C12.8706 6.43909 13.1542 7.28622 13.1537 8.15612Z" fill="#013DF5"/>
</svg>
