<svg width="18" height="15" viewBox="0 0 18 15" fill="none" xmlns="http://www.w3.org/2000/svg">
<path d="M16.6154 0H1.38462C1.01739 0 0.66521 0.143668 0.405544 0.3994C0.145879 0.655131 0 1.00198 0 1.36364V13.6364C0 13.998 0.145879 14.3449 0.405544 14.6006C0.66521 14.8563 1.01739 15 1.38462 15H2.54337C2.67439 15 2.80274 14.9635 2.91349 14.8945C3.02425 14.8256 3.11286 14.7271 3.16904 14.6105C3.50569 13.9105 4.0372 13.319 4.70176 12.9048C5.36632 12.4906 6.13662 12.2708 6.92308 12.2708C7.70954 12.2708 8.47983 12.4906 9.14439 12.9048C9.80895 13.319 10.3405 13.9105 10.6771 14.6105C10.7333 14.7271 10.8219 14.8256 10.9327 14.8945C11.0434 14.9635 11.1718 15 11.3028 15H16.6154C16.9826 15 17.3348 14.8563 17.5945 14.6006C17.8541 14.3449 18 13.998 18 13.6364V1.36364C18 1.00198 17.8541 0.655131 17.5945 0.3994C17.3348 0.143668 16.9826 0 16.6154 0ZM6.92308 10.9091C6.37537 10.9091 5.83997 10.7491 5.38458 10.4495C4.92918 10.1498 4.57424 9.72384 4.36464 9.2255C4.15504 8.72716 4.1002 8.17879 4.20706 7.64975C4.31391 7.12071 4.57765 6.63476 4.96494 6.25335C5.35222 5.87193 5.84565 5.61218 6.38283 5.50695C6.92001 5.40172 7.47681 5.45573 7.98282 5.66215C8.48883 5.86857 8.92132 6.21813 9.22561 6.66663C9.52989 7.11512 9.69231 7.64241 9.69231 8.18182C9.69231 8.90514 9.40055 9.59883 8.88122 10.1103C8.36189 10.6218 7.65752 10.9091 6.92308 10.9091ZM16.6154 13.6364H11.7199C11.4181 13.1239 11.0334 12.6633 10.5811 12.2727H14.5385C14.7221 12.2727 14.8982 12.2009 15.028 12.073C15.1578 11.9452 15.2308 11.7717 15.2308 11.5909V3.40909C15.2308 3.22826 15.1578 3.05484 15.028 2.92697C14.8982 2.79911 14.7221 2.72727 14.5385 2.72727H3.46154C3.27793 2.72727 3.10184 2.79911 2.972 2.92697C2.84217 3.05484 2.76923 3.22826 2.76923 3.40909V11.5909C2.76915 11.7421 2.82012 11.8891 2.91411 12.0086C3.00811 12.1282 3.1398 12.2136 3.28846 12.2514C2.82567 12.6463 2.43289 13.1144 2.12625 13.6364H1.38462V1.36364H16.6154V13.6364Z" fill="#013DF5"/>
</svg>
