<svg width="21" height="28" viewBox="0 0 21 28" fill="none" xmlns="http://www.w3.org/2000/svg">
<path d="M20.375 21.7273V26.25C20.375 26.4821 20.2828 26.7046 20.1187 26.8687C19.9546 27.0328 19.7321 27.125 19.5 27.125C19.2679 27.125 19.0454 27.0328 18.8813 26.8687C18.7172 26.7046 18.625 26.4821 18.625 26.25V21.7273C18.6209 20.6042 18.3858 19.494 17.9342 18.4657C17.4826 17.4373 16.8242 16.5129 16 15.75V22.132C15.9998 22.3203 15.9389 22.5036 15.8263 22.6545C15.7137 22.8054 15.5555 22.916 15.375 22.9698C15.1946 23.0236 15.0016 23.0178 14.8247 22.9531C14.6478 22.8885 14.4965 22.7686 14.3933 22.6111L13.2252 20.8272C13.2164 20.8141 13.2077 20.7998 13.2 20.7856C13.0284 20.4826 12.7435 20.2602 12.4079 20.1673C12.0724 20.0744 11.7136 20.1186 11.4106 20.2902C11.1076 20.4617 10.8852 20.7467 10.7923 21.0822C10.6994 21.4178 10.7436 21.7765 10.9152 22.0795L13.3356 25.7753C13.4627 25.9695 13.5074 26.2062 13.4599 26.4334C13.4124 26.6606 13.2766 26.8596 13.0824 26.9866C12.8882 27.1137 12.6515 27.1584 12.4243 27.1109C12.1971 27.0634 11.9981 26.9276 11.8711 26.7334L9.43641 23.0147L9.41016 22.9731C9.03327 22.3273 8.90572 21.5658 9.05156 20.8324C9.19739 20.0989 9.60654 19.4442 10.2018 18.9916C10.7971 18.5391 11.5374 18.32 12.2832 18.3756C13.0289 18.4313 13.7285 18.7578 14.25 19.2937V7H12.5C12.2679 7 12.0454 6.90781 11.8813 6.74372C11.7172 6.57962 11.625 6.35706 11.625 6.125C11.625 5.89294 11.7172 5.67038 11.8813 5.50628C12.0454 5.34219 12.2679 5.25 12.5 5.25H14.25C14.7141 5.25 15.1592 5.43437 15.4874 5.76256C15.8156 6.09075 16 6.53587 16 7V13.5209C17.343 14.4285 18.4437 15.6507 19.2063 17.081C19.9688 18.5113 20.37 20.1064 20.375 21.7273ZM4.625 6.125C4.625 5.89294 4.53281 5.67038 4.36872 5.50628C4.20462 5.34219 3.98206 5.25 3.75 5.25H2C1.53587 5.25 1.09075 5.43437 0.762563 5.76256C0.434374 6.09075 0.25 6.53587 0.25 7V21.875C0.25 22.1071 0.342187 22.3296 0.506282 22.4937C0.670376 22.6578 0.892936 22.75 1.125 22.75C1.35706 22.75 1.57962 22.6578 1.74372 22.4937C1.90781 22.3296 2 22.1071 2 21.875V7H3.75C3.98206 7 4.20462 6.90781 4.36872 6.74372C4.53281 6.57962 4.625 6.35706 4.625 6.125ZM12.2441 10.7559C12.1628 10.6746 12.0663 10.61 11.9601 10.566C11.8538 10.522 11.74 10.4993 11.625 10.4993C11.51 10.4993 11.3962 10.522 11.2899 10.566C11.1837 10.61 11.0872 10.6746 11.0059 10.7559L9 12.763V1.75C9 1.51794 8.90781 1.29538 8.74372 1.13128C8.57962 0.967187 8.35706 0.875 8.125 0.875C7.89294 0.875 7.67038 0.967187 7.50628 1.13128C7.34219 1.29538 7.25 1.51794 7.25 1.75V12.763L5.24406 10.7559C5.07988 10.5918 4.85719 10.4995 4.625 10.4995C4.39281 10.4995 4.17012 10.5918 4.00594 10.7559C3.84175 10.9201 3.74951 11.1428 3.74951 11.375C3.74951 11.6072 3.84175 11.8299 4.00594 11.9941L7.50594 15.4941C7.5872 15.5754 7.6837 15.64 7.78993 15.684C7.89615 15.728 8.01001 15.7507 8.125 15.7507C8.23999 15.7507 8.35385 15.728 8.46007 15.684C8.5663 15.64 8.6628 15.5754 8.74406 15.4941L12.2441 11.9941C12.3254 11.9128 12.39 11.8163 12.434 11.7101C12.478 11.6038 12.5007 11.49 12.5007 11.375C12.5007 11.26 12.478 11.1461 12.434 11.0399C12.39 10.9337 12.3254 10.8372 12.2441 10.7559Z" fill="white"/>
</svg>
